<?xml version="1.0" encoding="UTF-8" standalone="no"?>
<svg
   width="168"
   height="156"
   version="1.1"
   id="svg9"
   sodipodi:docname="galaxy.svg"
   xmlns:inkscape="http://www.inkscape.org/namespaces/inkscape"
   xmlns:sodipodi="http://sodipodi.sourceforge.net/DTD/sodipodi-0.dtd"
   xmlns="http://www.w3.org/2000/svg"
   xmlns:svg="http://www.w3.org/2000/svg">
  <defs
     id="defs13" />
  <sodipodi:namedview
     id="namedview11"
     pagecolor="#ffffff"
     bordercolor="#000000"
     borderopacity="0.25"
     inkscape:showpageshadow="2"
     inkscape:pageopacity="0.0"
     inkscape:pagecheckerboard="0"
     inkscape:deskcolor="#d1d1d1"
     showgrid="false" />
  <title
     id="title2">Galaxy</title>
  <g
     id="g7"
     style="fill:#ffffff;fill-opacity:1">
    <title
       id="title4">Layer 1</title>
    <path
       fill="black"
       id="svg_1"
       d="M 0,89 C 0,49.6 31.6,12 74,12 c 33.8,0 61,23.2 61,58 0,20.8 -22.42925,36.70288 -41.88989,36.70288 C 73.64947,106.70288 60,100 60,83 c -3.6,0 -6,6 -6,12 0,16.6 19.32539,29.25391 42.52539,29.25391 30.4,0 57.0166,-26.85079 57.0166,-68.05079 C 153.54199,30.60312 146.6,13 136,0 c 13,11 32,32.8 32,67 0,39.4 -31.6,77 -74,77 C 60.2,144 33,120.8 33,86 33,65.2 53.60179,50.36499 73.46606,50.00903 93.33033,49.65307 108,56 108,73 c 3.6,0 6,-6 6,-12 C 114,44.4 93.48809,34.35645 70.28809,34.35645 39.88809,34.35645 12.55957,54.8 12.55957,96 12.55957,121.6 21.4,143 32,156 19,145 0,123.2 0,89 Z"
       style="fill:#ffffff;fill-opacity:1" />
  </g>
</svg>
