<?xml version="1.0" encoding="UTF-8"?>
<svg width="168" height="156" xmlns="http://www.w3.org/2000/svg" xmlns:svg="http://www.w3.org/2000/svg">
 <title>Galaxy</title>
 <g>
  <title>Layer 1</title>
  <path fill="black" id="svg_1" d="m0,89c0,-39.4 31.6,-77 74,-77c33.8,0 61,23.2 61,58c0,20.8 -22.42925,36.70288 -41.88989,36.70288c-19.46064,0 -33.11011,-6.70288 -33.11011,-23.70288c-3.6,0 -6,6 -6,12c0,16.6 19.32539,29.25391 42.52539,29.25391c30.4,0 57.0166,-26.85079 57.0166,-68.05079c0,-25.6 -6.94199,-43.20312 -17.54199,-56.20312c13,11 32,32.8 32,67c0,39.4 -31.6,77 -74,77c-33.8,0 -61,-23.2 -61,-58c0,-20.8 20.60179,-35.63501 40.46606,-35.99097c19.86427,-0.35596 34.53394,5.99097 34.53394,22.99097c3.6,0 6,-6 6,-12c0,-16.6 -20.51191,-26.64355 -43.71191,-26.64355c-30.4,0 -57.72852,20.44355 -57.72852,61.64355c0,25.6 8.84043,47 19.44043,60c-13,-11 -32,-32.8 -32,-67z"/>
 </g>
</svg>