<?xml version="1.0" encoding="UTF-8" standalone="no"?>
<!-- Svg Vector Icons : http://www.onlinewebfonts.com/icon -->

<svg
   version="1.1"
   x="0px"
   y="0px"
   viewBox="0 0 979.98535 333.21875"
   enable-background="new 0 0 1000 1000"
   xml:space="preserve"
   id="svg10"
   width="979.98535"
   height="333.21875"
   xmlns="http://www.w3.org/2000/svg"
   xmlns:svg="http://www.w3.org/2000/svg"><defs
   id="defs14" />
<metadata
   id="metadata2"> Svg Vector Icons : http://www.onlinewebfonts.com/icon </metadata>
<g
   id="g8"
   style="fill:#ffffff;fill-opacity:1"
   transform="translate(-10,-333.375)"><g
     transform="matrix(0.1,0,0,-0.1,0,511)"
     id="g6"
     style="fill:#ffffff;fill-opacity:1"><path
       d="m 8194.3,1749 c -42.6,-32.9 -75.5,-118.2 -60,-160.8 5.8,-19.4 300.3,-325.5 652.9,-678.1 L 9428.4,265 h -751.7 c -432,0 -767.2,-7.7 -786.6,-17.4 -40.7,-23.3 -65.9,-79.4 -197.6,-437.8 -112.4,-306.1 -244.1,-577.3 -277.1,-565.7 -52.3,15.5 -164.7,275.1 -389.4,885.4 C 6812.9,712.6 6646.3,918 6421.5,875.4 6251,844.4 6105.7,621.6 5912,100.5 5691.1,-502 5584.6,-740.3 5532.3,-755.8 c -36.8,-11.6 -170.5,273.2 -327.4,701.3 -232.5,633.5 -335.2,819.5 -496,900.9 -93,48.4 -155,48.4 -248,0 C 4302,767 4211,602.3 3978.5,-15.7 c -172.4,-457.2 -273.2,-685.8 -319.7,-722.6 -25.2,-21.3 -36.8,-15.5 -79.4,48.4 -48.4,71.7 -184,401 -331.3,809.8 -38.8,106.6 -112.4,282.9 -164.7,389.4 -184,381.7 -404.9,474.7 -621.9,257.7 -93,-93 -217,-348.7 -354.5,-726.5 -203.4,-563.8 -317.7,-813.7 -366.2,-796.3 -42.6,13.6 -149.2,246 -304.2,662.6 C 1246.7,422.1 1130.5,668.2 1031.7,767 828.4,970.2 605.6,892.7 433.2,561.4 338.3,379.3 100,-258.1 100,-325.9 c 0,-114.3 160.8,-186 248,-110.4 21.3,17.4 83.3,155 139.5,313.9 120.1,335.2 282.9,683.9 315.8,674.2 44.6,-15.5 155,-255.7 325.5,-707.1 209.2,-558 288.7,-718.8 406.8,-829.2 149.2,-139.5 292.5,-135.6 439.8,11.6 102.7,100.7 199.6,306.1 391.4,821.4 158.9,426.2 279,689.7 323.5,703.3 34.9,9.7 197.6,-342.9 344.8,-751.7 209.2,-575.4 319.7,-773 476.6,-852.4 93,-48.4 155,-48.4 248,0 158.9,81.4 255.7,253.8 492.1,881.5 168.6,449.5 228.6,589 286.7,672.3 l 42.6,60.1 46.5,-56.2 c 54.2,-67.8 156.9,-310 327.4,-773 197.6,-538.6 294.5,-703.3 455.3,-786.6 94.9,-46.5 139.5,-46.5 246.1,3.9 156.9,77.5 253.8,253.8 488.2,883.4 160.8,437.8 282.8,705.2 323.5,716.8 46.5,15.5 164.7,-240.2 381.7,-836.9 186,-511.5 323.5,-730.4 484.3,-784.6 236.3,-77.5 408.8,125.9 649,765.3 l 93,251.9 676.1,5.8 676.1,3.9 -641.3,-643.2 c -352.6,-354.5 -647.1,-660.6 -652.9,-680 -15.5,-42.6 17.4,-127.9 60,-160.8 17.5,-15.5 60.1,-27.1 91.1,-27.1 50.4,0 151.1,93 819.5,761.4 581.2,581.2 763.3,774.9 778.8,827.2 44.6,156.9 56.2,143.4 -771.1,974.5 -676.2,676.1 -774.9,769.1 -827.2,769.1 -30.8,-0.3 -73.5,-11.9 -90.9,-27.4 z"
       id="path4"
       style="fill:#ffffff;fill-opacity:1" /></g></g>
</svg>
