<?xml version="1.0" encoding="UTF-8" standalone="no"?>
<!-- Uploaded to: SVG Repo, www.svgrepo.com, Generator: SVG Repo Mixer Tools -->

<svg
   fill="#000000"
   height="782.66498"
   width="693.55414"
   version="1.2"
   id="Layer_1"
   viewBox="0 0 221.93732 250.45279"
   xml:space="preserve"
   sodipodi:docname="radio_dish_white.svg"
   inkscape:export-filename="radio_dish_white.png"
   inkscape:export-xdpi="96"
   inkscape:export-ydpi="96"
   inkscape:version="1.2.2 (b0a8486541, 2022-12-01)"
   xmlns:inkscape="http://www.inkscape.org/namespaces/inkscape"
   xmlns:sodipodi="http://sodipodi.sourceforge.net/DTD/sodipodi-0.dtd"
   xmlns="http://www.w3.org/2000/svg"
   xmlns:svg="http://www.w3.org/2000/svg"><defs
   id="defs15" /><sodipodi:namedview
   id="namedview13"
   pagecolor="#ffffff"
   bordercolor="#000000"
   borderopacity="0.25"
   inkscape:showpageshadow="2"
   inkscape:pageopacity="0.0"
   inkscape:pagecheckerboard="0"
   inkscape:deskcolor="#d1d1d1"
   showgrid="false"
   inkscape:zoom="1.1039206"
   inkscape:cx="347.39817"
   inkscape:cy="391.33249"
   inkscape:window-width="1920"
   inkscape:window-height="1044"
   inkscape:window-x="0"
   inkscape:window-y="36"
   inkscape:window-maximized="1"
   inkscape:current-layer="Layer_1" />
<g
   id="g10"
   style="fill:#ffffff;fill-opacity:1"
   transform="translate(-17.062672,-3.5472021)">
	<path
   d="m 117.3,220.5 c -2.1,-0.3 -7.4,-1.5 -9.8,-2.2 C 91.1,214 77.1,207.5 64.1,198 c -2.1,-1.5 -5.4,-4.1 -6.6,-5.1 -0.4,-0.3 -1.2,-1.1 -1.9,-1.5 l -1.1,-1 -0.7,2.2 C 53.5,193.8 21.2,254 21.2,254 l 122.4,-0.3 c 0,0 -24.8,-32.9 -24.9,-32.9 0,-0.1 -0.7,-0.2 -1.4,-0.3 z"
   id="path2"
   style="fill:#ffffff;fill-opacity:1" />
	<path
   d="m 180.7,153.2 c -27.1,-18.5 -49.5,-33.6 -49.6,-33.8 -0.1,-0.1 5.5,-9.1 6.2,-10 0.4,0.1 1,0.2 1.4,0.2 8.6,0.9 16.3,-5.4 17.2,-14.1 0.9,-8.7 -5.4,-16.3 -14.1,-17.2 -8.6,-0.9 -16.3,5.4 -17.2,14.1 -0.4,4.1 0.8,7.9 3.1,10.8 -0.4,0.8 -6.1,9.5 -6.1,9.5 -0.1,0 -90.8,-61.5 -99.8,-67.7 L 21,44.6 20.9,45 c -0.7,2.7 -1.7,8.1 -2.3,12.2 -0.6,3.8 -1.4,12.9 -1.5,16.3 -0.3,14.4 1.2,27.6 4.8,40.8 6.9,25.8 20.7,48.8 40,66.4 27.9,25.5 64.4,37.7 101.4,34.2 23.9,-2.3 46.8,-11.2 66.4,-25.7 l 2,-1.4 -0.8,-0.6 c -0.5,-0.3 -23.1,-15.7 -50.2,-34 z M 51.3,148.4 C 43.2,136.2 37.4,123.8 33.8,110.8 31,100.8 29.7,90.2 29.7,79.6 c 0,-3.9 0.3,-10.5 0.6,-10.5 0,0 4.1,2.9 9.1,6.4 5,3.5 9.1,6.5 9.1,6.5 0,0 0,1.4 -0.1,3.1 -1.2,19.4 0.4,35.1 5.9,54.6 0.7,2.4 3.4,11.6 4.8,15.8 0.7,2.2 1.3,4.3 1.4,4.5 0,1.1 -5.7,-6.3 -9.2,-11.6 z"
   id="path4"
   style="fill:#ffffff;fill-opacity:1" />
	<path
   d="m 107.9,34 3.4,14.1 c 38.8,-9.6 78.4,14.1 88,52.9 l 14.1,-3.4 C 201.8,50.9 154.4,22.4 107.9,34 Z"
   id="path6"
   style="display:none;fill:#ffffff;fill-opacity:1" />
	<path
   d="m 181.2,31.8 c 22,13.2 37.5,34.2 43.7,59.1 L 239,87.5 C 231.9,58.8 214,34.7 188.8,19.4 163.6,4.2 133.8,-0.3 105.1,6.9 l 3.4,14.1 c 24.9,-6.4 50.8,-2.5 72.7,10.8 z"
   id="path8"
   style="display:none;fill:#ffffff;fill-opacity:1" />
</g>
</svg>
