<?xml version="1.0" encoding="utf-8"?>
<!-- Uploaded to: SVG Repo, www.svgrepo.com, Generator: SVG Repo Mixer Tools -->
<svg fill="#000000" height="800px" width="800px" version="1.2" baseProfile="tiny" id="Layer_1" xmlns:svg="http://www.w3.org/2000/svg"
	 xmlns="http://www.w3.org/2000/svg" xmlns:xlink="http://www.w3.org/1999/xlink"  viewBox="0 0 256 256"
	 xml:space="preserve">
<g>
	<path d="M117.3,220.5c-2.1-0.3-7.4-1.5-9.8-2.2C91.1,214,77.1,207.5,64.1,198c-2.1-1.5-5.4-4.1-6.6-5.1c-0.4-0.3-1.2-1.1-1.9-1.5
		l-1.1-1l-0.7,2.2c-0.3,1.2-32.6,61.4-32.6,61.4l122.4-0.3c0,0-24.8-32.9-24.9-32.9C118.7,220.7,118,220.6,117.3,220.5z"/>
	<path d="M180.7,153.2c-27.1-18.5-49.5-33.6-49.6-33.8c-0.1-0.1,5.5-9.1,6.2-10c0.4,0.1,1,0.2,1.4,0.2c8.6,0.9,16.3-5.4,17.2-14.1
		s-5.4-16.3-14.1-17.2c-8.6-0.9-16.3,5.4-17.2,14.1c-0.4,4.1,0.8,7.9,3.1,10.8c-0.4,0.8-6.1,9.5-6.1,9.5c-0.1,0-90.8-61.5-99.8-67.7
		L21,44.6l-0.1,0.4c-0.7,2.7-1.7,8.1-2.3,12.2C18,61,17.2,70.1,17.1,73.5c-0.3,14.4,1.2,27.6,4.8,40.8c6.9,25.8,20.7,48.8,40,66.4
		c27.9,25.5,64.4,37.7,101.4,34.2c23.9-2.3,46.8-11.2,66.4-25.7l2-1.4l-0.8-0.6C230.4,186.9,207.8,171.5,180.7,153.2z M51.3,148.4
		c-8.1-12.2-13.9-24.6-17.5-37.6c-2.8-10-4.1-20.6-4.1-31.2c0-3.9,0.3-10.5,0.6-10.5c0,0,4.1,2.9,9.1,6.4s9.1,6.5,9.1,6.5
		s0,1.4-0.1,3.1c-1.2,19.4,0.4,35.1,5.9,54.6c0.7,2.4,3.4,11.6,4.8,15.8c0.7,2.2,1.3,4.3,1.4,4.5C60.5,161.1,54.8,153.7,51.3,148.4z
		"/>
	<path d="M107.9,34l3.4,14.1c38.8-9.6,78.4,14.1,88,52.9l14.1-3.4C201.8,50.9,154.4,22.4,107.9,34z"/>
	<path d="M181.2,31.8c22,13.2,37.5,34.2,43.7,59.1l14.1-3.4c-7.1-28.7-25-52.8-50.2-68.1c-25.2-15.2-55-19.7-83.7-12.5l3.4,14.1
		C133.4,14.6,159.3,18.5,181.2,31.8z"/>
</g>
</svg>